# xmcd CD database file
#
# Track frame offsets:
#	150
#	13041
#	24451
#	36200
#	54589
#	69812
#	82356
#	92421
#	102409
#	113120
#	121564
#	140660
#	151953
#	161157
#	171109
#	182725
#	193305
#	212206
#	223346
#	231665
#	245629
#	257550
#	270414
#	281667
#	294507
#
# Disc length: 4118 seconds
#
# Revision: 0
# Processed by: cddbd v1.5.2PL0 Copyright (c) Steve Scherf et al.
# Submitted via: CDex 1.51
#
DISCID=78101419
DTITLE=Terry Lee Goffee - The Man In Black is Gone
DYEAR=2010
DGENRE=Country
TTITLE0=Terry Lee Goffee - Understand Your Man
TTITLE1=Terry Lee Goffee - Big River
TTITLE2=Terry Lee Goffee - So Doggone Lonesome
TTITLE3=Terry Lee Goffee - Sunday Morning Coming Down
TTITLE4=Terry Lee Goffee - Boy Named Sue
TTITLE5=Terry Lee Goffee - Folsom Prison Blues
TTITLE6=Terry Lee Goffee - Ways Of A Woman In Love
TTITLE7=Terry Lee Goffee - Ballad Of A Teenage Queen
TTITLE8=Terry Lee Goffee - Daddy Sang Base
TTITLE9=Terry Lee Goffee - Five Feet High And Rising
TTITLE10=Terry Lee Goffee - Ballad Of Ira Hayes
TTITLE11=Terry Lee Goffee - Get Rythem
TTITLE12=Terry Lee Goffee - I've Got Stripes
TTITLE13=Terry Lee Goffee - Luther Payed The Boogie
TTITLE14=Terry Lee Goffee - I Walked The Line
TTITLE15=Terry Lee Goffee - Threre You Go
TTITLE16=Terry Lee Goffee - One Piece At A Time
TTITLE17=Terry Lee Goffee - Ring Of Fire
TTITLE18=Terry Lee Goffee - I Guess Things Happen That Way
TTITLE19=Terry Lee Goffee - Don't Take Your Gun's To Town
TTITLE20=Terry Lee Goffee - Flesh and Blood
TTITLE21=Terry Lee Goffee - The One On The Left
TTITLE22=Terry Lee Goffee - Drive On
TTITLE23=Terry Lee Goffee - The Man In Black
TTITLE24=Terry Lee Goffee - The Man In Black Is Gone
EXTD=YEAR: 2010
EXTT0=
EXTT1=
EXTT2=
EXTT3=
EXTT4=
EXTT5=
EXTT6=
EXTT7=
EXTT8=
EXTT9=
EXTT10=
EXTT11=
EXTT12=
EXTT13=
EXTT14=
EXTT15=
EXTT16=
EXTT17=
EXTT18=
EXTT19=
EXTT20=
EXTT21=
EXTT22=
EXTT23=
EXTT24=
PLAYORDER=
